# xmcd CD database file
#
# Track frame offsets:
#	150
#	15842
#	30152
#	47527
#	66767
#	85067
#	101425
#	119222
#	122130
#	133297
#	147485
#	174257
#
# Disc length: 4440 seconds
#
# Revision: 0
# Processed by: cddbd v1.5PL3 Copyright (c) Steve Scherf et al.
# Submitted via: CDex 1.50
#
DISCID=9b11560c
DTITLE=Beto Guedes - Contos da Lua Vaga
DYEAR=1981
DGENRE=Country
TTITLE0=O Sal da Terra
TTITLE1=Tesouro da Juventude
TTITLE2=Boa Sorte
TTITLE3=Contos da Lua Vaga
TTITLE4=Rio Doce
TTITLE5=Veveco, Panelas e Canelas
TTITLE6=Quatro
TTITLE7=Sete Flautas
TTITLE8=Dona Júlia
TTITLE9=Canção do Novo Mundo
TTITLE10=Noite Sem Luar
TTITLE11=Totalização
EXTD=YEAR: 1981
EXTT0=
EXTT1=
EXTT2=
EXTT3=
EXTT4=
EXTT5=
EXTT6=
EXTT7=
EXTT8=
EXTT9=
EXTT10=
EXTT11=
PLAYORDER=
